<svg viewBox="0 0 28 28">
  <g transform="matrix(.15743 0 0 .13422 -4.6128 -6.8322)">
  <g stroke="#000">
   <path transform="scale(.26458)" d="m125.71 200v514.29h42.857v-428.35l89.986 155.86 37.211-21.484-127.2-220.31z" fill="#011d36" stroke-width=".37795"/>
   <path transform="scale(.26458)" d="m515.18 200-127.2 220.31 37.213 21.484 89.986-155.86v428.35h42.857v-514.29z" fill="#021e39" stroke-width=".37795"/>
   <path d="m92.216 114.72a33.234 33.234 0 0 0-33.145 33.234 33.234 33.234 0 0 0 33.234 33.234 33.234 33.234 0 0 0 18.425-5.5748 33.234 33.234 0 0 1-9.1989-9.1829 20.651 20.651 0 0 1-9.2258 2.1756 20.651 20.651 0 0 1-20.651-20.651 20.651 20.651 0 0 1 20.645-20.651 20.651 20.651 0 0 1 0.0067 0 20.651 20.651 0 0 1 9.2258 2.1756 33.234 33.234 0 0 1 9.1989-9.1829 33.234 33.234 0 0 0-18.425-5.5749 33.234 33.234 0 0 0-0.08888 0z" fill="#021e39" stroke-width=".12898"/>
  </g>
  <g fill="none">
   <path d="m92.216 114.72a33.234 33.234 0 0 0-33.145 33.234 33.234 33.234 0 0 0 33.234 33.234 33.234 33.234 0 0 0 18.425-5.5748 33.234 33.234 0 0 1-9.1989-9.1829 20.651 20.651 0 0 1-9.2258 2.1756 20.651 20.651 0 0 1-20.651-20.651 20.651 20.651 0 0 1 20.645-20.651 20.651 20.651 0 0 1 0.0067 0 20.651 20.651 0 0 1 9.2258 2.1756 33.234 33.234 0 0 1 9.1989-9.1829 33.234 33.234 0 0 0-18.425-5.5749 33.234 33.234 0 0 0-0.08888 0z" stroke="#ff6900" stroke-opacity=".95161" stroke-width="2"/>
   <path transform="scale(.26458)" d="m515.18 200-127.2 220.31 37.213 21.484 89.986-155.86v428.35h42.857v-514.29z" stroke="#ff6900" stroke-opacity=".95294" stroke-width="7.5591"/>
   <path transform="scale(.26458)" d="m125.71 200v514.29h42.857v-428.35l89.986 155.86 37.211-21.484-127.2-220.31z" stroke="#f46401" stroke-opacity=".99608" stroke-width="7.5591"/>
  </g>
 </g>
</svg>