<svg viewBox="0 0 28 28">
 <g transform="matrix(1.0318 0 0 .88809 -1.6904 -.27223)">
  <g transform="matrix(.2307 0 0 .2307 -18.279 -27.316)" fill="none" stroke="#000">
   <path d="m120.7 192.82-2.1754 3.1753h6.4449l-2.3492-3.1753z"/>
   <path d="m113.54 170.46 0.9649 16.242"/>
   <path d="m113.54 170.46 0.9649 16.242"/>
   <path d="m130.1 170.38-0.9649 16.242"/>
   <path d="m120.48 170.57h2.1337v22.244h-1.9204z"/>
   <circle cx="121.52" cy="146.01" r="7.3954"/>
   <circle cx="121.58" cy="146.06" r="6.043"/>
   <path d="m113.82 136.38h15.469"/>
   <path d="m116.01 193.27-0.80542 1.3951h3.7005l-0.84072-1.4561z"/>
   <path d="m125.76 193.03-0.82717 1.7922h3.5154l-1.0753-1.8625z"/>
   <path d="m121.55 121.17-2.6959 1.7627-2.1775 4.4587-1.2443 3.007-1.2443 4.1476-0.82953 4.0439-0.62214 3.8365-0.41476 3.6292 0.16817 4.8612 0.16089 2.3318 0.24122 3.7792v0.96488l0.32164 5.0657 0.32162 7.3975-8.4428 6.513 1.769 22.112h1.5277l0.56286-9.4077 0.64325-0.96489 1.2865-0.88447 1.3669-0.88448 1.2061-0.16089 1.0453-0.0804 0.32162 6.2718h6.0306v6.2718h1.9298v-6.1914h6.3522v-6.1914h1.2061l2.4122 0.9649 1.769 0.72366 0.32163 1.1257 0.16089 0.96491v8.3624h2.3318l1.2865-22.836-8.5232-5.7892 1.0453-25.489-2.4926-11.9-2.573-7.2367-2.2514-3.3771z"/>
  </g>
 </g>
</svg>
